# xmcd
#
# Track frame offsets:
#	150
#	20438
#	37675
#	63603
#	85955
#	108925
#	123895
#	145432
#	168370
#	186711
#	216683
#	236911
#
# Disc length: 3424 seconds
#
# Revision: 1
# Processed by: cddbd v1.5.2PL0 Copyright (c) Steve Scherf et al.
# Submitted via: audiograbber 1.83.01
#
DISCID=b20d5e0c
DTITLE=The Mighty Reapers - Million Sellers
DYEAR=2001
DGENRE=Blues
TTITLE0=Who's Been Talking
TTITLE1=Watch Me Move
TTITLE2=Lonely Part of Town
TTITLE3=Drowning in the Sea of Love
TTITLE4=The Shunkle
TTITLE5=Ting-a-Ling
TTITLE6=Bad Luck Attack
TTITLE7=Waiting for a Miracle
TTITLE8=High Cost of Living
TTITLE9=Guess I'll Find Out Later On
TTITLE10=Trouble People
TTITLE11=Little by Little
EXTD=Sydney based funky soul and blues group.
EXTT0=
EXTT1=
EXTT2=
EXTT3=
EXTT4=
EXTT5=
EXTT6=
EXTT7=
EXTT8=
EXTT9=
EXTT10=
EXTT11=
PLAYORDER=
